# xmcd
#
# Track frame offsets:
#	183
#	14028
#	30963
#	45690
#	60055
#	72450
#	87355
#	102278
#	114153
#	130535
#	143770
#	161258
#	176493
#	192180
#	203675
#	216523
#
# Disc length: 3082
#
# Revision: 1
# Processed by: cddbd v1.5.1PL0 Copyright (c) Steve Scherf et al.
# Submitted via: EasyCDDAExtractor 4.5.0.2
# Normalized: r0:TDELIM( - )
#
DISCID=d00c0810
DTITLE=x - Die Superhits der Volksmusik
DYEAR=1992
DGENRE=Volksmuik und Schlager
TTITLE0=Kastelruther Spatzen - Komm nimm mich doch mit
TTITLE1=Andi Warda - Was is des?
TTITLE2=Orig. Naabtal Quintett - Menschen hab'n auf Gott vergessen
TTITLE3=Zillertaler Schürzenjäger - Dahoam is dahoam
TTITLE4=Alpenwelt Musikanten - Es ist nicht alles Gold was glänzt
TTITLE5=Bianca - Und dann schauen mich zwei grosse,  blaue Kinderaugen an
TTITLE6=Die Wildecker herzbuben - Hurra, die Feuerwehr ist da
TTITLE7=Die 3 Z'widern - Tutti Frutti mit der Mutti
TTITLE8=Karl DAll - Oh, watt'n Meer
TTITLE9=Alpenland Quintett - Ein kleines Kompliment
TTITLE10=Angela Wiedl - Monte Bianco
TTITLE11=Albin Berger - Glück und Tränen am Wörthersee
TTITLE12=Alpentrio Tirol - I hab das Schlüsserl zu dei'm Herzen
TTITLE13=Sepp und die Steigerwälder Musikanten - Abracadabra
TTITLE14=Andy and Bernd - Musikparadies
TTITLE15=Michael David - Liebeslied
EXTD=CD von I.B.\n
EXTT0=
EXTT1=
EXTT2=
EXTT3=
EXTT4=
EXTT5=
EXTT6=
EXTT7=
EXTT8=
EXTT9=
EXTT10=
EXTT11=
EXTT12=
EXTT13=
EXTT14=
EXTT15=
PLAYORDER=
